@startuml

class Usuario{
    -id
    -admin
    -nombre
    -correo
    -direccion
    -telefono
    -contraseña
    -iban
    -idPagina
    -idTarjeta
    +get*
    +set*
}

class Producto{
   -id
   -nombre
   -categoria
   -descripcion
   -precioBase
   -descuento
   -precioFinal
}

class Carrito{
    -id
    -usuario
    -detailCarrito
}

class DetailProducto{
    -producto
    -cantidad
    -precioBase
    -descuento
    -precioTotal
}

class Pedido{
    -id
    -precioBase
    -descuento
    -precioTotal
    -usarioId
    -fecha
    -datailPedido
}

class DetailPedido{
    -producto
    -cantidad
    -precioBase
    -descuento
    -precioTotal
}

class Color {
    -id
    -Hex1
    -Hex2
    -Hex3
    -Hex4
    -Hex5
    -Hex6
}
class Tarjeta {
    -id
    -material
    -idColor
}
class Categoria{
    -id
    -nombre
}
' Relaciones entre entidades
Usuario "1" *-- "1" Carrito : tiene
Carrito "1" *-- "*" DetailProducto : contiene
DetailProducto "1" --> "1" Producto : referencia
Usuario "1" -- "*" Pedido : realiza
Pedido "1" *-- "*" DetailPedido : contiene
DetailPedido "1" --> "1" Producto : referencia
Usuario "1" o-- "*" Tarjeta : posee
Tarjeta "1" --> "1" Color : color
Categoria "1" -- "*" Producto : clasifica
Pedido "1" --> "1" Carrito:Genera





@enduml